<?xml version="1.0" encoding="utf-8"?>
<!-- Generator: Adobe Illustrator 13.0.2, SVG Export Plug-In . SVG Version: 6.00 Build 14948)  -->
<!DOCTYPE svg PUBLIC "-//W3C//DTD SVG 1.1//EN" "http://www.w3.org/Graphics/SVG/1.1/DTD/svg11.dtd">
<svg version="1.1" id="Layer_1" xmlns="http://www.w3.org/2000/svg" xmlns:xlink="http://www.w3.org/1999/xlink" x="0px" y="0px"
	 width="330.667px" height="111.824px" viewBox="0 0 330.667 111.824" enable-background="new 0 0 330.667 111.824"
	 xml:space="preserve">
<g id="Layer_1_1_">
</g>
<g id="Layer_3">
	<path fill="#EED360" d="M52.667,84.49c0,0-29,6.334-52.667,27.334c0,0,3-22.666,22.333-40.334L1.667,59.824
		c0,0,29.667-25.333,50-26.333L52.667,84.49z"/>
	<path fill="#EED360" d="M278,84.49c0,0,29.002,6.334,52.668,27.334c0,0-3-22.666-22.334-40.334l20.668-11.666
		c0,0-29.668-25.333-50.002-26.333L278,84.49z"/>
	<path fill="#FFDA69" d="M38.332,25.877c0,0,111.555-58.223,253.777,0l-0.889,51.556c0,0-113.334-57.333-252.445-0.443
		L38.332,25.877z"/>
</g>
<g id="Layer_2">
</g>
</svg>
